<?xml version="1.0" encoding="UTF-8" standalone="no"?>
<!-- Created with Inkscape (http://www.inkscape.org/) -->

<svg
   version="1.1"
   id="svg824"
   width="160"
   height="137.06357"
   viewBox="0 0 159.99999 137.06357"
   sodipodi:docname="SovietShopperArrow.svg"
   inkscape:version="1.1 (c68e22c387, 2021-05-23)"
   xmlns:inkscape="http://www.inkscape.org/namespaces/inkscape"
   xmlns:sodipodi="http://sodipodi.sourceforge.net/DTD/sodipodi-0.dtd"
   xmlns="http://www.w3.org/2000/svg"
   xmlns:svg="http://www.w3.org/2000/svg">
  <defs
     id="defs828" />
  <sodipodi:namedview
     id="namedview826"
     pagecolor="#ffffff"
     bordercolor="#666666"
     borderopacity="1.0"
     inkscape:pageshadow="2"
     inkscape:pageopacity="0.0"
     inkscape:pagecheckerboard="0"
     showgrid="false"
     fit-margin-top="0"
     fit-margin-left="0"
     fit-margin-right="0"
     fit-margin-bottom="0"
     lock-margins="false"
     inkscape:zoom="0.69910714"
     inkscape:cx="639.38698"
     inkscape:cy="123.72925"
     inkscape:window-width="1920"
     inkscape:window-height="1001"
     inkscape:window-x="-9"
     inkscape:window-y="-9"
     inkscape:window-maximized="1"
     inkscape:current-layer="g830" />
  <g
     inkscape:groupmode="layer"
     inkscape:label="Image"
     id="g830"
     transform="translate(-14.303959,21.455942)">
    <path
       style="fill:#FF0000;fill-opacity:1;stroke-width:0.163217"
       d="M 80.508035,115.3407 79.365178,115.10039 77.814159,114.36011 76.263136,113.61983 46.280362,83.652039 16.297586,53.684257 15.550257,52.134133 14.802929,50.58401 14.553444,49.326315 14.303959,48.06862 V 47.075836 46.083051 L 14.553444,44.825356 14.802929,43.567661 15.550257,42.017538 16.297586,40.467415 46.280362,10.499633 76.263136,-19.468151 77.814159,-20.207462 79.365178,-20.946773 80.6236,-21.201357 81.882023,-21.455942 H 82.875381 83.86874 L 85.127163,-21.206601 86.385585,-20.957261 87.936603,-20.203529 89.487632,-19.449798 90.892139,-18.046099 92.296646,-16.6424 93.050813,-15.092277 93.80498,-13.542153 94.054469,-12.284458 94.303951,-11.026762 V -10.033979 -9.0411951 L 94.054469,-7.7835 93.80498,-6.5258045 93.056887,-4.9756805 92.308794,-3.4255577 72.777355,16.114157 53.245921,35.653873 H 108.55733 163.86874 L 165.12716,35.912714 166.38557,36.171556 167.20191,36.514848 168.01825,36.85814 169.02152,37.483603 170.02479,38.109065 171.17042,39.314402 172.31604,40.519739 173.06051,42.0437 173.80499,43.567661 174.05447,44.825356 174.30396,46.083051 V 47.075836 48.06862 L 174.05447,49.326315 173.80499,50.58401 173.05082,52.134133 172.29665,53.684257 170.89213,55.087956 169.48763,56.491655 167.93661,57.245388 166.38557,57.999117 165.12716,58.248459 163.86874,58.497798 H 108.55733 53.245921 L 72.7797,78.037515 92.31348,97.577226 93.053991,99.127354 93.794494,100.67747 94.049218,101.93517 94.303951,103.19287 V 104.18566 105.17844 L 94.049218,106.43614 93.794494,107.69383 93.047943,109.24396 92.301401,110.79408 90.894512,112.19777 89.487632,113.60148 87.936603,114.35522 86.385585,115.10894 85.127163,115.35828 83.86874,115.60762 82.759817,115.59432 81.650892,115.58102 Z"
       id="path1104" />
  </g>
</svg>
